<?xml version="1.0" encoding="utf-8"?>
<!-- Generator: Adobe Illustrator 21.0.0, SVG Export Plug-In . SVG Version: 6.00 Build 0)  -->
<svg version="1.1" id="Layer_1" xmlns="http://www.w3.org/2000/svg" xmlns:xlink="http://www.w3.org/1999/xlink" x="0px" y="0px"
	 viewBox="0 0 60 60" style="enable-background:new 0 0 60 60;" xml:space="preserve">
<style type="text/css">
	.st0{clip-path:url(#SVGID_2_);fill:#00AFFB;}
	.st1{clip-path:url(#SVGID_4_);fill:#00D3B2;}
	.st2{clip-path:url(#SVGID_6_);fill:#00D3B2;}
	.st3{clip-path:url(#SVGID_8_);fill:#00D3B2;}
	.st4{clip-path:url(#SVGID_10_);fill:#00D3B2;}
	.st5{clip-path:url(#SVGID_12_);fill:#00D3B2;}
	.st6{clip-path:url(#SVGID_14_);fill:#00D3B2;}
	.st7{clip-path:url(#SVGID_16_);fill:#00D3B2;}
	.st8{clip-path:url(#SVGID_18_);fill:#00D3B2;}
	.st9{clip-path:url(#SVGID_20_);fill:#00D3B2;}
	.st10{clip-path:url(#SVGID_22_);fill:#B770FD;}
	.st11{clip-path:url(#SVGID_24_);fill:#B770FD;}
	.st12{clip-path:url(#SVGID_26_);fill:#4A90E2;}
	.st13{clip-path:url(#SVGID_28_);fill:#4A90E2;}
	.st14{fill:#00C7FF;}
	.st15{clip-path:url(#SVGID_30_);fill:#EC78FF;}
	.st16{clip-path:url(#SVGID_32_);fill:#EC78FF;}
	.st17{clip-path:url(#SVGID_34_);fill:#EC78FF;}
	.st18{clip-path:url(#SVGID_36_);fill:#EC78FF;}
	.st19{clip-path:url(#SVGID_38_);fill:#B8E986;}
	.st20{clip-path:url(#SVGID_40_);fill:#B8E986;}
	.st21{clip-path:url(#SVGID_42_);fill:#B8E986;}
	.st22{clip-path:url(#SVGID_44_);fill:#B8E986;}
	.st23{clip-path:url(#SVGID_46_);fill:#FF8383;}
	.st24{fill:none;stroke:#FF8383;stroke-width:0.5;stroke-miterlimit:10;}
	.st25{clip-path:url(#SVGID_48_);fill:#FF8383;}
	.st26{fill:none;stroke:#FF8383;stroke-width:0.2;stroke-miterlimit:10;}
	.st27{clip-path:url(#SVGID_50_);fill:#F5A623;}
	.st28{clip-path:url(#SVGID_52_);fill:#F5A623;}
	.st29{clip-path:url(#SVGID_54_);fill:#F5A623;}
	.st30{clip-path:url(#SVGID_56_);fill:#F5A623;}
	.st31{clip-path:url(#SVGID_58_);fill:#FFC758;}
	.st32{fill:none;stroke:#FFC758;stroke-width:0.5;stroke-miterlimit:10;}
	.st33{clip-path:url(#SVGID_60_);fill:#FFC758;}
	.st34{clip-path:url(#SVGID_62_);fill:#FFC758;}
	.st35{clip-path:url(#SVGID_64_);fill:#FFC758;}
	.st36{clip-path:url(#SVGID_66_);fill:#FFC758;}
	.st37{clip-path:url(#SVGID_68_);fill:#AB8AF2;}
	.st38{clip-path:url(#SVGID_70_);fill:#AB8AF2;}
	.st39{clip-path:url(#SVGID_72_);fill:#AB8AF2;}
	.st40{clip-path:url(#SVGID_74_);}
	.st41{clip-path:url(#SVGID_76_);fill:#00D3B2;}
	.st42{clip-path:url(#SVGID_78_);}
	.st43{clip-path:url(#SVGID_80_);fill:#00D3B2;}
	.st44{clip-path:url(#SVGID_82_);}
	.st45{clip-path:url(#SVGID_84_);fill:#00D3B2;}
	.st46{clip-path:url(#SVGID_86_);}
	.st47{clip-path:url(#SVGID_88_);fill:#00D3B2;}
	.st48{clip-path:url(#SVGID_90_);}
	.st49{clip-path:url(#SVGID_92_);fill:#00AFFB;}
	.st50{clip-path:url(#SVGID_94_);}
	.st51{clip-path:url(#SVGID_96_);fill:#00AFFB;}
	.st52{clip-path:url(#SVGID_98_);}
	.st53{clip-path:url(#SVGID_100_);fill:#00AFFB;}
	.st54{clip-path:url(#SVGID_102_);}
	.st55{clip-path:url(#SVGID_104_);fill:#B770FD;}
	.st56{clip-path:url(#SVGID_106_);}
	.st57{clip-path:url(#SVGID_108_);fill:#B770FD;}
	.st58{clip-path:url(#SVGID_110_);}
	.st59{clip-path:url(#SVGID_112_);fill:#B770FD;}
	.st60{clip-path:url(#SVGID_114_);}
	.st61{clip-path:url(#SVGID_116_);fill:#B770FD;}
	.st62{clip-path:url(#SVGID_118_);}
	.st63{clip-path:url(#SVGID_120_);fill:#B770FD;}
	.st64{clip-path:url(#SVGID_122_);}
	.st65{clip-path:url(#SVGID_124_);fill:#B770FD;}
	.st66{clip-path:url(#SVGID_126_);}
	.st67{clip-path:url(#SVGID_128_);fill:#B770FD;}
	.st68{clip-path:url(#SVGID_130_);}
	.st69{clip-path:url(#SVGID_132_);fill:#B770FD;}
	.st70{clip-path:url(#SVGID_134_);}
	.st71{clip-path:url(#SVGID_136_);fill:#B770FD;}
	.st72{clip-path:url(#SVGID_138_);}
	.st73{clip-path:url(#SVGID_140_);fill:#B770FD;}
	.st74{clip-path:url(#SVGID_142_);}
	.st75{clip-path:url(#SVGID_144_);fill:#B770FD;}
	.st76{clip-path:url(#SVGID_146_);}
	.st77{clip-path:url(#SVGID_148_);fill:#B770FD;}
	.st78{clip-path:url(#SVGID_150_);}
	.st79{clip-path:url(#SVGID_152_);fill:#FF8383;}
</style>
<g>
	<g>
		<defs>
			<path id="SVGID_25_" d="M29.9,19.8c-5.9,0-10.7,4.8-10.7,10.7c0,5.9,4.8,10.7,10.7,10.7c1.1,0,2.2-0.2,3.2-0.5
				c1-0.3,1.5-1.3,1.2-2.3c-0.3-1-1.3-1.5-2.3-1.2c-0.7,0.2-1.4,0.3-2.1,0.3c-3.9,0-7-3.1-7-7s3.1-7,7-7s7,3.1,7,7
				c0,0.7-0.1,1.3-0.3,2c-0.3,1,0.3,2,1.3,2.3c1,0.3,2-0.3,2.3-1.3c0.3-1,0.4-2,0.4-3C40.6,24.6,35.8,19.8,29.9,19.8z"/>
		</defs>
		<clipPath id="SVGID_2_">
			<use xlink:href="#SVGID_25_"  style="overflow:visible;"/>
		</clipPath>
		<rect x="6.1" y="6.7" style="clip-path:url(#SVGID_2_);fill:#4A90E2;" width="47.6" height="47.6"/>
	</g>
	<g>
		<defs>
			<path id="SVGID_27_" d="M49.8,31.4c0,1-0.8,1.8-1.8,1.8H47c-1.7,0-3.3,1-4,2.7l0,0c-0.7,1.6-0.3,3.5,0.9,4.7l0.7,0.7
				c0.3,0.3,0.5,0.8,0.5,1.3s-0.2,1-0.5,1.3l-1.3,1.3c-0.3,0.3-0.8,0.5-1.3,0.5c-0.5,0-1-0.2-1.3-0.5l-0.7-0.7
				c-1.2-1.2-3.1-1.6-4.7-0.9l0,0c-1.6,0.7-2.7,2.2-2.7,4v0.9c0,1-0.8,1.8-1.8,1.8H29c-1,0-1.8-0.8-1.8-1.8v-0.9c0-1.7-1-3.3-2.7-4
				l0,0c-0.5-0.2-1.1-0.3-1.7-0.3c-1.1,0-2.2,0.4-3,1.3l-0.7,0.7c-0.3,0.3-0.8,0.5-1.3,0.5c-0.5,0-1-0.2-1.3-0.5l-1.3-1.3
				c-0.3-0.3-0.5-0.8-0.5-1.3s0.2-1,0.5-1.3l0.7-0.7c1.2-1.2,1.6-3.1,0.9-4.7l0,0c-0.7-1.6-2.2-2.7-4-2.7h-0.9c-1,0-1.8-0.8-1.8-1.8
				v-1.8c0-1,0.8-1.8,1.8-1.8h0.9c1.7,0,3.3-1,4-2.7l0,0c0.7-1.6,0.3-3.5-0.9-4.7l-0.7-0.7c-0.7-0.7-0.7-1.9,0-2.6l1.3-1.3
				c0.3-0.3,0.8-0.5,1.3-0.5c0.5,0,1,0.2,1.3,0.5l0.7,0.7c1.2,1.2,3.1,1.6,4.7,0.9l0,0c1.6-0.7,2.7-2.2,2.7-4v-0.9
				c0-1,0.8-1.8,1.8-1.8h1.8c1,0,1.8,0.8,1.8,1.8v0.9c0,1.7,1,3.3,2.7,4l0,0c1.6,0.7,3.5,0.3,4.7-0.9l0.7-0.7
				c0.3-0.3,0.8-0.5,1.3-0.5c0.5,0,1,0.2,1.3,0.5l1.3,1.3c0.7,0.7,0.7,1.9,0,2.6L44,20.3c-1.2,1.2-1.6,3.1-0.9,4.7l0,0
				c0.7,1.6,2.2,2.7,4,2.7H48c1,0,1.8,0.8,1.8,1.8V31.4z M48,24H47c-0.2,0-0.5-0.2-0.6-0.4l0,0c-0.1-0.2-0.1-0.5,0.1-0.7l0.7-0.7
				c2.2-2.2,2.2-5.7,0-7.8l-1.3-1.3c-1-1-2.4-1.6-3.9-1.6c-1.5,0-2.9,0.6-3.9,1.6l-0.7,0.7C37.3,14,37,14,36.8,13.9l0,0
				c-0.2-0.1-0.4-0.3-0.4-0.6v-0.9c0-3-2.5-5.5-5.5-5.5H29c-3,0-5.5,2.5-5.5,5.5v0.9c0,0.2-0.2,0.5-0.4,0.6l0,0
				c-0.2,0.1-0.5,0.1-0.7-0.1l-0.7-0.7c-1-1-2.4-1.6-3.9-1.6c-1.5,0-2.9,0.6-3.9,1.6l-1.3,1.3c-2.2,2.2-2.2,5.7,0,7.8l0.7,0.7
				c0.2,0.2,0.2,0.4,0.1,0.7l0,0C13.3,23.9,13,24,12.8,24h-0.9c-3,0-5.5,2.5-5.5,5.5v1.8c0,3,2.5,5.5,5.5,5.5h0.9
				c0.2,0,0.5,0.2,0.6,0.4l0,0c0.1,0.2,0.1,0.5-0.1,0.7l-0.7,0.7c-1,1-1.6,2.4-1.6,3.9c0,1.5,0.6,2.9,1.6,3.9l1.3,1.3
				c1,1,2.4,1.6,3.9,1.6c1.5,0,2.9-0.6,3.9-1.6l0.7-0.7c0.2-0.2,0.4-0.2,0.7-0.1l0,0c0.2,0.1,0.4,0.3,0.4,0.6v0.9
				c0,3,2.5,5.5,5.5,5.5h1.8c3,0,5.5-2.5,5.5-5.5v-0.9c0-0.2,0.2-0.5,0.4-0.6l0,0c0.2-0.1,0.5-0.1,0.7,0.1l0.7,0.7
				c1,1,2.4,1.6,3.9,1.6c1.5,0,2.9-0.6,3.9-1.6l1.3-1.3c1-1,1.6-2.4,1.6-3.9c0-1.5-0.6-2.9-1.6-3.9L46.6,38
				c-0.2-0.2-0.2-0.4-0.1-0.7l0,0c0.1-0.2,0.3-0.4,0.6-0.4H48c3,0,5.5-2.5,5.5-5.5v-1.8C53.5,26.5,51,24,48,24z"/>
		</defs>
		<clipPath id="SVGID_4_">
			<use xlink:href="#SVGID_27_"  style="overflow:visible;"/>
		</clipPath>
		<rect x="-6.8" y="-6.2" style="clip-path:url(#SVGID_4_);fill:#4A90E2;" width="73.4" height="73.4"/>
	</g>
</g>
<g>
	<g>
		<defs>
			<path id="SVGID_73_" d="M263,22.8c0,1.9-1.5,3.4-3.4,3.4h-6.5c-1.9,0-3.4-1.5-3.4-3.4v-6.5c0-1.9,1.5-3.4,3.4-3.4h6.5
				c1.9,0,3.4,1.5,3.4,3.4V22.8z M259.6,9.4h-6.5c-3.8,0-6.8,3.1-6.8,6.8v6.5c0,3.8,3.1,6.8,6.8,6.8h6.5c3.8,0,6.8-3.1,6.8-6.8v-6.5
				C266.4,12.5,263.3,9.4,259.6,9.4z"/>
		</defs>
		<clipPath id="SVGID_6_">
			<use xlink:href="#SVGID_73_"  style="overflow:visible;"/>
		</clipPath>
		<g style="clip-path:url(#SVGID_6_);">
			<defs>
				<rect id="SVGID_75_" x="-971.3" y="-563.2" width="5068.8" height="2851.2"/>
			</defs>
			<clipPath id="SVGID_8_">
				<use xlink:href="#SVGID_75_"  style="overflow:visible;"/>
			</clipPath>
		</g>
	</g>
	<g>
		<defs>
			<path id="SVGID_77_" d="M239.4,22.8c0,1.9-1.5,3.4-3.4,3.4h-6.5c-1.9,0-3.4-1.5-3.4-3.4v-6.5c0-1.9,1.5-3.4,3.4-3.4h6.5
				c1.9,0,3.4,1.5,3.4,3.4V22.8z M236,9.4h-6.5c-3.8,0-6.8,3.1-6.8,6.8v6.5c0,3.8,3.1,6.8,6.8,6.8h6.5c3.8,0,6.8-3.1,6.8-6.8v-6.5
				C242.8,12.5,239.7,9.4,236,9.4z"/>
		</defs>
		<clipPath id="SVGID_10_">
			<use xlink:href="#SVGID_77_"  style="overflow:visible;"/>
		</clipPath>
		<g style="clip-path:url(#SVGID_10_);">
			<defs>
				<rect id="SVGID_79_" x="-971.3" y="-563.2" width="5068.8" height="2851.2"/>
			</defs>
			<clipPath id="SVGID_12_">
				<use xlink:href="#SVGID_79_"  style="overflow:visible;"/>
			</clipPath>
		</g>
	</g>
	<g>
		<defs>
			<path id="SVGID_81_" d="M239.4,46.3c0,1.9-1.5,3.4-3.4,3.4h-6.5c-1.9,0-3.4-1.5-3.4-3.4v-6.5c0-1.9,1.5-3.4,3.4-3.4h6.5
				c1.9,0,3.4,1.5,3.4,3.4V46.3z M236,33h-6.5c-3.8,0-6.8,3.1-6.8,6.8v6.5c0,3.8,3.1,6.8,6.8,6.8h6.5c3.8,0,6.8-3.1,6.8-6.8v-6.5
				C242.8,36.1,239.7,33,236,33z"/>
		</defs>
		<clipPath id="SVGID_14_">
			<use xlink:href="#SVGID_81_"  style="overflow:visible;"/>
		</clipPath>
		<g style="clip-path:url(#SVGID_14_);">
			<defs>
				<rect id="SVGID_83_" x="-971.3" y="-563.2" width="5068.8" height="2851.2"/>
			</defs>
			<clipPath id="SVGID_16_">
				<use xlink:href="#SVGID_83_"  style="overflow:visible;"/>
			</clipPath>
		</g>
	</g>
	<g>
		<defs>
			<path id="SVGID_85_" d="M264.7,44.6c-0.9,0-1.7,0.8-1.7,1.7c0,1.9-1.5,3.4-3.4,3.4h-6.5c-1.9,0-3.4-1.5-3.4-3.4v-6.5
				c0-1.9,1.5-3.4,3.4-3.4h6.5c1.4,0,2.6,0.8,3.1,2c0.4,0.9,1.4,1.3,2.2,0.9c0.9-0.4,1.3-1.4,0.9-2.2c-1.1-2.5-3.5-4.1-6.3-4.1h-6.5
				c-3.8,0-6.8,3.1-6.8,6.8v6.5c0,3.8,3.1,6.8,6.8,6.8h6.5c3.8,0,6.8-3.1,6.8-6.8C266.4,45.4,265.6,44.6,264.7,44.6z"/>
		</defs>
		<clipPath id="SVGID_18_">
			<use xlink:href="#SVGID_85_"  style="overflow:visible;"/>
		</clipPath>
		<g style="clip-path:url(#SVGID_18_);">
			<defs>
				<rect id="SVGID_87_" x="-971.3" y="-563.2" width="5068.8" height="2851.2"/>
			</defs>
			<clipPath id="SVGID_20_">
				<use xlink:href="#SVGID_87_"  style="overflow:visible;"/>
			</clipPath>
		</g>
	</g>
</g>
<g>
	<defs>
		<path id="SVGID_89_" d="M104.7,18.3H90.6v-3.7h2c0.9,0,1.6-0.6,1.8-1.4l0.3-1.1c0.2-0.8,0.9-1.3,1.7-1.3h2.4
			c0.8,0,1.5,0.5,1.7,1.3l0.3,1.1c0.2,0.8,1,1.4,1.8,1.4h2.2V18.3z M123.5,42.1c1,0,1.9-0.8,1.9-1.9v-8.7c0-3.1-2.5-5.7-5.7-5.7H116
			v-7.5c0-4.2-3.4-7.6-7.6-7.6H104c-0.7-2.2-2.8-3.8-5.2-3.8h-2.4c-2.4,0-4.5,1.5-5.2,3.8h-4.5c-4.2,0-7.6,3.4-7.6,7.6v29.6
			c0,4.2,3.4,7.6,7.6,7.6h8.3c1,0,1.9-0.8,1.9-1.9c0-1-0.8-1.9-1.9-1.9h-8.3c-2.1,0-3.8-1.7-3.8-3.8V18.4c0-2.1,1.7-3.8,3.8-3.8h0.2
			v5.6c0,1,0.8,1.9,1.9,1.9h17.9c1,0,1.9-0.8,1.9-1.9v-5.6c2.1,0,3.8,1.7,3.8,3.8v7.5h-6.2c-3.1,0-5.7,2.5-5.7,5.7v18.3
			c0,3.1,2.5,5.7,5.7,5.7l13.6,0c3.1,0,5.7-2.5,5.7-5.7c0-1-0.8-1.9-1.9-1.9c-1,0-1.9,0.8-1.9,1.9c0,1-0.8,1.9-1.9,1.9l-13.6,0
			c-1,0-1.9-0.8-1.9-1.9V31.5c0-1,0.8-1.9,1.9-1.9h13.6c1,0,1.9,0.8,1.9,1.9v8.7C121.6,41.3,122.5,42.1,123.5,42.1z"/>
	</defs>
	<clipPath id="SVGID_22_">
		<use xlink:href="#SVGID_89_"  style="overflow:visible;"/>
	</clipPath>
	<g style="clip-path:url(#SVGID_22_);">
		<defs>
			<rect id="SVGID_91_" x="-879.3" y="-563.2" width="5068.8" height="2851.2"/>
		</defs>
		<clipPath id="SVGID_24_">
			<use xlink:href="#SVGID_91_"  style="overflow:visible;"/>
		</clipPath>
	</g>
</g>
<g>
	<defs>
		<path id="SVGID_93_" d="M115.9,33.4h-6.1c-1,0-1.9,0.8-1.9,1.9s0.8,1.9,1.9,1.9h6.1c1,0,1.9-0.8,1.9-1.9S117,33.4,115.9,33.4z"/>
	</defs>
	<clipPath id="SVGID_26_">
		<use xlink:href="#SVGID_93_"  style="overflow:visible;"/>
	</clipPath>
	<g style="clip-path:url(#SVGID_26_);">
		<defs>
			<rect id="SVGID_95_" x="-879.3" y="-563.2" width="5068.8" height="2851.2"/>
		</defs>
		<clipPath id="SVGID_28_">
			<use xlink:href="#SVGID_95_"  style="overflow:visible;"/>
		</clipPath>
	</g>
</g>
<g>
	<defs>
		<path id="SVGID_97_" d="M115.9,40.1h-6.1c-1,0-1.9,0.8-1.9,1.9c0,1,0.8,1.9,1.9,1.9h6.1c1,0,1.9-0.8,1.9-1.9
			C117.8,40.9,117,40.1,115.9,40.1z"/>
	</defs>
	<clipPath id="SVGID_30_">
		<use xlink:href="#SVGID_97_"  style="overflow:visible;"/>
	</clipPath>
	<g style="clip-path:url(#SVGID_30_);">
		<defs>
			<rect id="SVGID_99_" x="-879.3" y="-563.2" width="5068.8" height="2851.2"/>
		</defs>
		<clipPath id="SVGID_32_">
			<use xlink:href="#SVGID_99_"  style="overflow:visible;"/>
		</clipPath>
	</g>
</g>
<g>
	<g>
		<defs>
			<path id="SVGID_101_" d="M197.7,40.4c1,0,1.9-0.8,1.9-1.9V18.4c0-4.2-3.4-7.6-7.6-7.6h-2.5V8.9c0-1-0.8-1.9-1.9-1.9
				s-1.9,0.8-1.9,1.9v1.9h-8.6V8.9c0-1-0.8-1.9-1.9-1.9s-1.9,0.8-1.9,1.9v1.9h-8.5V8.9c0-1-0.8-1.9-1.9-1.9c-1,0-1.9,0.8-1.9,1.9
				v1.9h-2.4c-4.2,0-7.6,3.4-7.6,7.6V48c0,4.2,3.4,7.6,7.6,7.6H192c4.2,0,7.6-3.4,7.6-7.6c0-1-0.8-1.9-1.9-1.9c-1,0-1.9,0.8-1.9,1.9
				c0,2.1-1.7,3.8-3.8,3.8h-33.4c-2.1,0-3.8-1.7-3.8-3.8V18.4c0-2.1,1.7-3.8,3.8-3.8h2.4v1.9c0,1,0.8,1.9,1.9,1.9
				c1,0,1.9-0.8,1.9-1.9v-1.9h8.5v1.9c0,1,0.8,1.9,1.9,1.9s1.9-0.8,1.9-1.9v-1.9h8.6v1.9c0,1,0.8,1.9,1.9,1.9s1.9-0.8,1.9-1.9v-1.9
				h2.5c2.1,0,3.8,1.7,3.8,3.8v20.1C195.8,39.6,196.7,40.4,197.7,40.4z"/>
		</defs>
		<clipPath id="SVGID_34_">
			<use xlink:href="#SVGID_101_"  style="overflow:visible;"/>
		</clipPath>
		<g style="clip-path:url(#SVGID_34_);">
			<defs>
				<rect id="SVGID_103_" x="-926.3" y="-563.2" width="5068.8" height="2851.2"/>
			</defs>
			<clipPath id="SVGID_36_">
				<use xlink:href="#SVGID_103_"  style="overflow:visible;"/>
			</clipPath>
		</g>
	</g>
	<g>
		<defs>
			<circle id="SVGID_105_" cx="162.9" cy="26.9" r="1.9"/>
		</defs>
		<clipPath id="SVGID_38_">
			<use xlink:href="#SVGID_105_"  style="overflow:visible;"/>
		</clipPath>
		<g style="clip-path:url(#SVGID_38_);">
			<defs>
				<rect id="SVGID_107_" x="-926.3" y="-563.2" width="5068.8" height="2851.2"/>
			</defs>
			<clipPath id="SVGID_40_">
				<use xlink:href="#SVGID_107_"  style="overflow:visible;"/>
			</clipPath>
		</g>
	</g>
	<g>
		<defs>
			<circle id="SVGID_109_" cx="179.4" cy="26.9" r="1.9"/>
		</defs>
		<clipPath id="SVGID_42_">
			<use xlink:href="#SVGID_109_"  style="overflow:visible;"/>
		</clipPath>
		<g style="clip-path:url(#SVGID_42_);">
			<defs>
				<rect id="SVGID_111_" x="-926.3" y="-563.2" width="5068.8" height="2851.2"/>
			</defs>
			<clipPath id="SVGID_44_">
				<use xlink:href="#SVGID_111_"  style="overflow:visible;"/>
			</clipPath>
		</g>
	</g>
	<g>
		<defs>
			<circle id="SVGID_113_" cx="187.7" cy="26.9" r="1.9"/>
		</defs>
		<clipPath id="SVGID_46_">
			<use xlink:href="#SVGID_113_"  style="overflow:visible;"/>
		</clipPath>
		<g style="clip-path:url(#SVGID_46_);">
			<defs>
				<rect id="SVGID_115_" x="-926.3" y="-563.2" width="5068.8" height="2851.2"/>
			</defs>
			<clipPath id="SVGID_48_">
				<use xlink:href="#SVGID_115_"  style="overflow:visible;"/>
			</clipPath>
		</g>
	</g>
	<g>
		<defs>
			<circle id="SVGID_117_" cx="162.9" cy="35.2" r="1.9"/>
		</defs>
		<clipPath id="SVGID_50_">
			<use xlink:href="#SVGID_117_"  style="overflow:visible;"/>
		</clipPath>
		<g style="clip-path:url(#SVGID_50_);">
			<defs>
				<rect id="SVGID_119_" x="-926.3" y="-563.2" width="5068.8" height="2851.2"/>
			</defs>
			<clipPath id="SVGID_52_">
				<use xlink:href="#SVGID_119_"  style="overflow:visible;"/>
			</clipPath>
		</g>
	</g>
	<g>
		<defs>
			<circle id="SVGID_121_" cx="162.9" cy="43.4" r="1.9"/>
		</defs>
		<clipPath id="SVGID_54_">
			<use xlink:href="#SVGID_121_"  style="overflow:visible;"/>
		</clipPath>
		<g style="clip-path:url(#SVGID_54_);">
			<defs>
				<rect id="SVGID_123_" x="-926.3" y="-563.2" width="5068.8" height="2851.2"/>
			</defs>
			<clipPath id="SVGID_56_">
				<use xlink:href="#SVGID_123_"  style="overflow:visible;"/>
			</clipPath>
		</g>
	</g>
	<g>
		<defs>
			<circle id="SVGID_125_" cx="171.2" cy="26.9" r="1.9"/>
		</defs>
		<clipPath id="SVGID_58_">
			<use xlink:href="#SVGID_125_"  style="overflow:visible;"/>
		</clipPath>
		<g style="clip-path:url(#SVGID_58_);">
			<defs>
				<rect id="SVGID_127_" x="-926.3" y="-563.2" width="5068.8" height="2851.2"/>
			</defs>
			<clipPath id="SVGID_60_">
				<use xlink:href="#SVGID_127_"  style="overflow:visible;"/>
			</clipPath>
		</g>
	</g>
	<g>
		<defs>
			<circle id="SVGID_129_" cx="171.2" cy="35.2" r="1.9"/>
		</defs>
		<clipPath id="SVGID_62_">
			<use xlink:href="#SVGID_129_"  style="overflow:visible;"/>
		</clipPath>
		<g style="clip-path:url(#SVGID_62_);">
			<defs>
				<rect id="SVGID_131_" x="-926.3" y="-563.2" width="5068.8" height="2851.2"/>
			</defs>
			<clipPath id="SVGID_64_">
				<use xlink:href="#SVGID_131_"  style="overflow:visible;"/>
			</clipPath>
		</g>
	</g>
	<g>
		<defs>
			<circle id="SVGID_133_" cx="171.2" cy="43.4" r="1.9"/>
		</defs>
		<clipPath id="SVGID_66_">
			<use xlink:href="#SVGID_133_"  style="overflow:visible;"/>
		</clipPath>
		<g style="clip-path:url(#SVGID_66_);">
			<defs>
				<rect id="SVGID_135_" x="-926.3" y="-563.2" width="5068.8" height="2851.2"/>
			</defs>
			<clipPath id="SVGID_68_">
				<use xlink:href="#SVGID_135_"  style="overflow:visible;"/>
			</clipPath>
		</g>
	</g>
	<g>
		<defs>
			<circle id="SVGID_137_" cx="179.4" cy="35.2" r="1.9"/>
		</defs>
		<clipPath id="SVGID_70_">
			<use xlink:href="#SVGID_137_"  style="overflow:visible;"/>
		</clipPath>
		<g style="clip-path:url(#SVGID_70_);">
			<defs>
				<rect id="SVGID_139_" x="-926.3" y="-563.2" width="5068.8" height="2851.2"/>
			</defs>
			<clipPath id="SVGID_72_">
				<use xlink:href="#SVGID_139_"  style="overflow:visible;"/>
			</clipPath>
		</g>
	</g>
	<g>
		<defs>
			<circle id="SVGID_141_" cx="187.7" cy="35.2" r="1.9"/>
		</defs>
		<clipPath id="SVGID_74_">
			<use xlink:href="#SVGID_141_"  style="overflow:visible;"/>
		</clipPath>
		<g class="st40">
			<defs>
				<rect id="SVGID_143_" x="-926.3" y="-563.2" width="5068.8" height="2851.2"/>
			</defs>
			<clipPath id="SVGID_76_">
				<use xlink:href="#SVGID_143_"  style="overflow:visible;"/>
			</clipPath>
		</g>
	</g>
	<g>
		<defs>
			<circle id="SVGID_145_" cx="179.4" cy="43.4" r="1.9"/>
		</defs>
		<clipPath id="SVGID_78_">
			<use xlink:href="#SVGID_145_"  style="overflow:visible;"/>
		</clipPath>
		<g class="st42">
			<defs>
				<rect id="SVGID_147_" x="-926.3" y="-563.2" width="5068.8" height="2851.2"/>
			</defs>
			<clipPath id="SVGID_80_">
				<use xlink:href="#SVGID_147_"  style="overflow:visible;"/>
			</clipPath>
		</g>
	</g>
</g>
<g>
	<g>
		<defs>
			<path id="SVGID_149_" d="M337.7,20.2l-0.5,0.5l-8-8l0.5-0.5c1.1-1.1,2.5-1.6,4-1.6c1.5,0,2.9,0.6,4,1.6c1.1,1.1,1.6,2.5,1.6,4
				C339.4,17.7,338.8,19.2,337.7,20.2z M309.8,46.3l-8.5,2.4l2.4-8.6L309.8,46.3z M340.3,9.7C338.6,8,336.2,7,333.8,7
				c-2.5,0-4.8,1-6.5,2.7l-25.8,25.8c-0.2,0.2-0.4,0.5-0.5,0.8l-4.1,14.6c-0.2,0.6,0,1.3,0.5,1.8c0.3,0.3,0.8,0.5,1.3,0.5
				c0.2,0,0.3,0,0.5-0.1l14.6-4.1c0.6-0.2,1.1-0.7,1.3-1.3c0.2-0.6,0-1.3-0.5-1.7l-9.2-9.2l21.4-21.4l8,8l-16.4,16.3
				c-0.7,0.7-0.7,1.8,0,2.5c0.7,0.7,1.8,0.7,2.5,0l19.5-19.4c1.7-1.7,2.7-4.1,2.7-6.5S342,11.4,340.3,9.7z"/>
		</defs>
		<clipPath id="SVGID_82_">
			<use xlink:href="#SVGID_149_"  style="overflow:visible;"/>
		</clipPath>
		<g class="st44">
			<defs>
				<rect id="SVGID_151_" x="-1011.3" y="-563.2" width="5068.8" height="2851.2"/>
			</defs>
			<clipPath id="SVGID_84_">
				<use xlink:href="#SVGID_151_"  style="overflow:visible;"/>
			</clipPath>
		</g>
	</g>
</g>
</svg>
