<?xml version="1.0" encoding="utf-8"?>
<!-- Generator: Adobe Illustrator 21.0.0, SVG Export Plug-In . SVG Version: 6.00 Build 0)  -->
<svg version="1.1" id="Layer_1" xmlns="http://www.w3.org/2000/svg" xmlns:xlink="http://www.w3.org/1999/xlink" x="0px" y="0px"
	 viewBox="0 0 60 60" style="enable-background:new 0 0 60 60;" xml:space="preserve">
<style type="text/css">
	.st0{clip-path:url(#SVGID_2_);fill:#00AFFB;}
	.st1{clip-path:url(#SVGID_4_);fill:#00D3B2;}
	.st2{clip-path:url(#SVGID_6_);fill:#00D3B2;}
	.st3{clip-path:url(#SVGID_8_);fill:#00D3B2;}
	.st4{clip-path:url(#SVGID_10_);fill:#00D3B2;}
	.st5{clip-path:url(#SVGID_12_);fill:#00D3B2;}
	.st6{clip-path:url(#SVGID_14_);fill:#00D3B2;}
	.st7{clip-path:url(#SVGID_16_);fill:#00D3B2;}
	.st8{clip-path:url(#SVGID_18_);fill:#00D3B2;}
	.st9{clip-path:url(#SVGID_20_);fill:#00D3B2;}
	.st10{clip-path:url(#SVGID_22_);fill:#B770FD;}
	.st11{clip-path:url(#SVGID_24_);fill:#B770FD;}
	.st12{clip-path:url(#SVGID_26_);fill:#4A90E2;}
	.st13{clip-path:url(#SVGID_28_);fill:#4A90E2;}
	.st14{fill:#00C7FF;}
	.st15{clip-path:url(#SVGID_30_);fill:#EC78FF;}
	.st16{clip-path:url(#SVGID_32_);fill:#EC78FF;}
	.st17{clip-path:url(#SVGID_34_);fill:#EC78FF;}
	.st18{clip-path:url(#SVGID_36_);fill:#EC78FF;}
	.st19{clip-path:url(#SVGID_38_);fill:#B8E986;}
	.st20{clip-path:url(#SVGID_40_);fill:#B8E986;}
	.st21{clip-path:url(#SVGID_42_);fill:#B8E986;}
	.st22{clip-path:url(#SVGID_44_);fill:#B8E986;}
	.st23{clip-path:url(#SVGID_46_);fill:#FF8383;}
	.st24{fill:none;stroke:#FF8383;stroke-width:0.5;stroke-miterlimit:10;}
	.st25{clip-path:url(#SVGID_48_);fill:#FF8383;}
	.st26{fill:none;stroke:#FF8383;stroke-width:0.2;stroke-miterlimit:10;}
	.st27{clip-path:url(#SVGID_50_);fill:#F5A623;}
	.st28{clip-path:url(#SVGID_52_);fill:#F5A623;}
	.st29{clip-path:url(#SVGID_54_);fill:#F5A623;}
	.st30{clip-path:url(#SVGID_56_);fill:#F5A623;}
	.st31{clip-path:url(#SVGID_58_);fill:#FFC758;}
	.st32{fill:none;stroke:#FFC758;stroke-width:0.5;stroke-miterlimit:10;}
	.st33{clip-path:url(#SVGID_60_);fill:#FFC758;}
	.st34{clip-path:url(#SVGID_62_);fill:#FFC758;}
	.st35{clip-path:url(#SVGID_64_);fill:#FFC758;}
	.st36{clip-path:url(#SVGID_66_);fill:#FFC758;}
	.st37{clip-path:url(#SVGID_68_);fill:#AB8AF2;}
	.st38{clip-path:url(#SVGID_70_);fill:#AB8AF2;}
	.st39{clip-path:url(#SVGID_72_);fill:#AB8AF2;}
	.st40{clip-path:url(#SVGID_74_);}
	.st41{clip-path:url(#SVGID_76_);fill:#00D3B2;}
	.st42{clip-path:url(#SVGID_78_);}
	.st43{clip-path:url(#SVGID_80_);fill:#00D3B2;}
	.st44{clip-path:url(#SVGID_82_);}
	.st45{clip-path:url(#SVGID_84_);fill:#00D3B2;}
	.st46{clip-path:url(#SVGID_86_);}
	.st47{clip-path:url(#SVGID_88_);fill:#00D3B2;}
	.st48{clip-path:url(#SVGID_90_);}
	.st49{clip-path:url(#SVGID_92_);fill:#00AFFB;}
	.st50{clip-path:url(#SVGID_94_);}
	.st51{clip-path:url(#SVGID_96_);fill:#00AFFB;}
	.st52{clip-path:url(#SVGID_98_);}
	.st53{clip-path:url(#SVGID_100_);fill:#00AFFB;}
	.st54{clip-path:url(#SVGID_102_);}
	.st55{clip-path:url(#SVGID_104_);fill:#B770FD;}
	.st56{clip-path:url(#SVGID_106_);}
	.st57{clip-path:url(#SVGID_108_);fill:#B770FD;}
	.st58{clip-path:url(#SVGID_110_);}
	.st59{clip-path:url(#SVGID_112_);fill:#B770FD;}
	.st60{clip-path:url(#SVGID_114_);}
	.st61{clip-path:url(#SVGID_116_);fill:#B770FD;}
	.st62{clip-path:url(#SVGID_118_);}
	.st63{clip-path:url(#SVGID_120_);fill:#B770FD;}
	.st64{clip-path:url(#SVGID_122_);}
	.st65{clip-path:url(#SVGID_124_);fill:#B770FD;}
	.st66{clip-path:url(#SVGID_126_);}
	.st67{clip-path:url(#SVGID_128_);fill:#B770FD;}
	.st68{clip-path:url(#SVGID_130_);}
	.st69{clip-path:url(#SVGID_132_);fill:#B770FD;}
	.st70{clip-path:url(#SVGID_134_);}
	.st71{clip-path:url(#SVGID_136_);fill:#B770FD;}
	.st72{clip-path:url(#SVGID_138_);}
	.st73{clip-path:url(#SVGID_140_);fill:#B770FD;}
	.st74{clip-path:url(#SVGID_142_);}
	.st75{clip-path:url(#SVGID_144_);fill:#B770FD;}
	.st76{clip-path:url(#SVGID_146_);}
	.st77{clip-path:url(#SVGID_148_);fill:#B770FD;}
	.st78{clip-path:url(#SVGID_150_);}
	.st79{clip-path:url(#SVGID_152_);fill:#FF8383;}
</style>
<g>
	<g>
		<defs>
			<path id="SVGID_21_" d="M22.4,21.7c3.4,0,6.2,2.8,6.2,6.2c0,3.4-2.8,6.2-6.2,6.2s-6.2-2.8-6.2-6.2C16.2,24.5,19,21.7,22.4,21.7z
				 M43.2,8c3.4,0,6.2,2.8,6.2,6.2c0,3.4-2.8,6.2-6.2,6.2c-3.4,0-6.2-2.8-6.2-6.2C37,10.8,39.8,8,43.2,8z M27,51.4H9.5
				c-0.6,0-1.2-0.3-1.6-0.8c-0.4-0.5-0.5-1.2-0.3-1.8c2-6.2,8-10.5,14.7-10.5c3.1,0,6.1,0.9,8.6,2.7c0.9,0.6,2.2,0.4,2.8-0.5
				c0.6-0.9,0.4-2.2-0.5-2.8c-1.3-0.9-2.6-1.6-4-2.1c1.9-1.7,3.1-4.1,3.3-6.7c2.8-2.8,6.6-4.3,10.5-4.3c3.1,0,6.1,0.9,8.6,2.7
				c0.9,0.6,2.2,0.4,2.8-0.5c0.6-0.9,0.4-2.2-0.5-2.8c-1.3-0.9-2.6-1.6-4-2.1c2.1-1.9,3.4-4.6,3.4-7.6C53.5,8.6,48.9,4,43.2,4
				c-5.7,0-10.3,4.6-10.3,10.2c0,3,1.3,5.7,3.3,7.5c-0.3,0.1-0.6,0.2-0.8,0.3c-1.3,0.6-2.4,1.2-3.5,2c-1.5-3.8-5.2-6.4-9.5-6.4
				c-5.7,0-10.3,4.6-10.3,10.2c0,3,1.3,5.7,3.3,7.5c-5.5,2-9.9,6.4-11.7,12c-0.6,1.9-0.3,3.8,0.9,5.4c1.1,1.6,2.9,2.5,4.9,2.5H27
				c1.1,0,2-0.9,2-2C29,52.3,28.1,51.4,27,51.4z"/>
		</defs>
		<clipPath id="SVGID_2_">
			<use xlink:href="#SVGID_21_"  style="overflow:visible;"/>
		</clipPath>
		<rect x="-9.4" y="-8.9" style="clip-path:url(#SVGID_2_);fill:#B770FD;" width="77.3" height="77.1"/>
	</g>
	<g>
		<defs>
			<path id="SVGID_23_" d="M53.5,36.6c-0.9-0.6-2.2-0.4-2.8,0.5l-9.9,13.8c-0.3,0.3-0.6,0.4-0.8,0.4c-0.2,0-0.6,0-0.9-0.3l-6.4-6.1
				c-0.8-0.8-2.1-0.7-2.8,0.1c-0.8,0.8-0.7,2.1,0.1,2.8l6.4,6.2c1,0.9,2.2,1.4,3.6,1.4c0.1,0,0.2,0,0.3,0c1.4-0.1,2.8-0.8,3.7-1.9
				c0,0,0-0.1,0.1-0.1l9.9-13.9C54.6,38.5,54.4,37.2,53.5,36.6z"/>
		</defs>
		<clipPath id="SVGID_4_">
			<use xlink:href="#SVGID_23_"  style="overflow:visible;"/>
		</clipPath>
		<rect x="16.4" y="23.3" style="clip-path:url(#SVGID_4_);fill:#B770FD;" width="50.8" height="44.8"/>
	</g>
</g>
<g>
	<g>
		<defs>
			<path id="SVGID_73_" d="M887,22.8c0,1.9-1.5,3.4-3.4,3.4h-6.5c-1.9,0-3.4-1.5-3.4-3.4v-6.5c0-1.9,1.5-3.4,3.4-3.4h6.5
				c1.9,0,3.4,1.5,3.4,3.4V22.8z M883.6,9.4h-6.5c-3.8,0-6.8,3.1-6.8,6.8v6.5c0,3.8,3.1,6.8,6.8,6.8h6.5c3.8,0,6.8-3.1,6.8-6.8v-6.5
				C890.4,12.5,887.3,9.4,883.6,9.4z"/>
		</defs>
		<clipPath id="SVGID_6_">
			<use xlink:href="#SVGID_73_"  style="overflow:visible;"/>
		</clipPath>
		<g style="clip-path:url(#SVGID_6_);">
			<defs>
				<rect id="SVGID_75_" x="-347.3" y="-563.2" width="5068.8" height="2851.2"/>
			</defs>
			<clipPath id="SVGID_8_">
				<use xlink:href="#SVGID_75_"  style="overflow:visible;"/>
			</clipPath>
		</g>
	</g>
	<g>
		<defs>
			<path id="SVGID_77_" d="M863.4,22.8c0,1.9-1.5,3.4-3.4,3.4h-6.5c-1.9,0-3.4-1.5-3.4-3.4v-6.5c0-1.9,1.5-3.4,3.4-3.4h6.5
				c1.9,0,3.4,1.5,3.4,3.4V22.8z M860,9.4h-6.5c-3.8,0-6.8,3.1-6.8,6.8v6.5c0,3.8,3.1,6.8,6.8,6.8h6.5c3.8,0,6.8-3.1,6.8-6.8v-6.5
				C866.8,12.5,863.7,9.4,860,9.4z"/>
		</defs>
		<clipPath id="SVGID_10_">
			<use xlink:href="#SVGID_77_"  style="overflow:visible;"/>
		</clipPath>
		<g style="clip-path:url(#SVGID_10_);">
			<defs>
				<rect id="SVGID_79_" x="-347.3" y="-563.2" width="5068.8" height="2851.2"/>
			</defs>
			<clipPath id="SVGID_12_">
				<use xlink:href="#SVGID_79_"  style="overflow:visible;"/>
			</clipPath>
		</g>
	</g>
	<g>
		<defs>
			<path id="SVGID_81_" d="M863.4,46.3c0,1.9-1.5,3.4-3.4,3.4h-6.5c-1.9,0-3.4-1.5-3.4-3.4v-6.5c0-1.9,1.5-3.4,3.4-3.4h6.5
				c1.9,0,3.4,1.5,3.4,3.4V46.3z M860,33h-6.5c-3.8,0-6.8,3.1-6.8,6.8v6.5c0,3.8,3.1,6.8,6.8,6.8h6.5c3.8,0,6.8-3.1,6.8-6.8v-6.5
				C866.8,36.1,863.7,33,860,33z"/>
		</defs>
		<clipPath id="SVGID_14_">
			<use xlink:href="#SVGID_81_"  style="overflow:visible;"/>
		</clipPath>
		<g style="clip-path:url(#SVGID_14_);">
			<defs>
				<rect id="SVGID_83_" x="-347.3" y="-563.2" width="5068.8" height="2851.2"/>
			</defs>
			<clipPath id="SVGID_16_">
				<use xlink:href="#SVGID_83_"  style="overflow:visible;"/>
			</clipPath>
		</g>
	</g>
	<g>
		<defs>
			<path id="SVGID_85_" d="M888.7,44.6c-0.9,0-1.7,0.8-1.7,1.7c0,1.9-1.5,3.4-3.4,3.4h-6.5c-1.9,0-3.4-1.5-3.4-3.4v-6.5
				c0-1.9,1.5-3.4,3.4-3.4h6.5c1.4,0,2.6,0.8,3.1,2c0.4,0.9,1.4,1.3,2.2,0.9c0.9-0.4,1.3-1.4,0.9-2.2c-1.1-2.5-3.5-4.1-6.3-4.1h-6.5
				c-3.8,0-6.8,3.1-6.8,6.8v6.5c0,3.8,3.1,6.8,6.8,6.8h6.5c3.8,0,6.8-3.1,6.8-6.8C890.4,45.4,889.6,44.6,888.7,44.6z"/>
		</defs>
		<clipPath id="SVGID_18_">
			<use xlink:href="#SVGID_85_"  style="overflow:visible;"/>
		</clipPath>
		<g style="clip-path:url(#SVGID_18_);">
			<defs>
				<rect id="SVGID_87_" x="-347.3" y="-563.2" width="5068.8" height="2851.2"/>
			</defs>
			<clipPath id="SVGID_20_">
				<use xlink:href="#SVGID_87_"  style="overflow:visible;"/>
			</clipPath>
		</g>
	</g>
</g>
<g>
	<defs>
		<path id="SVGID_89_" d="M728.7,18.3h-14.1v-3.7h2c0.9,0,1.6-0.6,1.8-1.4l0.3-1.1c0.2-0.8,0.9-1.3,1.7-1.3h2.4
			c0.8,0,1.5,0.5,1.7,1.3l0.3,1.1c0.2,0.8,1,1.4,1.8,1.4h2.2V18.3z M747.5,42.1c1,0,1.9-0.8,1.9-1.9v-8.7c0-3.1-2.5-5.7-5.7-5.7H740
			v-7.5c0-4.2-3.4-7.6-7.6-7.6H728c-0.7-2.2-2.8-3.8-5.2-3.8h-2.4c-2.4,0-4.5,1.5-5.2,3.8h-4.5c-4.2,0-7.6,3.4-7.6,7.6v29.6
			c0,4.2,3.4,7.6,7.6,7.6h8.3c1,0,1.9-0.8,1.9-1.9c0-1-0.8-1.9-1.9-1.9h-8.3c-2.1,0-3.8-1.7-3.8-3.8V18.4c0-2.1,1.7-3.8,3.8-3.8h0.2
			v5.6c0,1,0.8,1.9,1.9,1.9h17.9c1,0,1.9-0.8,1.9-1.9v-5.6c2.1,0,3.8,1.7,3.8,3.8v7.5h-6.2c-3.1,0-5.7,2.5-5.7,5.7v18.3
			c0,3.1,2.5,5.7,5.7,5.7l13.6,0c3.1,0,5.7-2.5,5.7-5.7c0-1-0.8-1.9-1.9-1.9c-1,0-1.9,0.8-1.9,1.9c0,1-0.8,1.9-1.9,1.9l-13.6,0
			c-1,0-1.9-0.8-1.9-1.9V31.5c0-1,0.8-1.9,1.9-1.9h13.6c1,0,1.9,0.8,1.9,1.9v8.7C745.6,41.3,746.5,42.1,747.5,42.1z"/>
	</defs>
	<clipPath id="SVGID_22_">
		<use xlink:href="#SVGID_89_"  style="overflow:visible;"/>
	</clipPath>
	<g style="clip-path:url(#SVGID_22_);">
		<defs>
			<rect id="SVGID_91_" x="-255.3" y="-563.2" width="5068.8" height="2851.2"/>
		</defs>
		<clipPath id="SVGID_24_">
			<use xlink:href="#SVGID_91_"  style="overflow:visible;"/>
		</clipPath>
	</g>
</g>
<g>
	<defs>
		<path id="SVGID_93_" d="M739.9,33.4h-6.1c-1,0-1.9,0.8-1.9,1.9s0.8,1.9,1.9,1.9h6.1c1,0,1.9-0.8,1.9-1.9S741,33.4,739.9,33.4z"/>
	</defs>
	<clipPath id="SVGID_26_">
		<use xlink:href="#SVGID_93_"  style="overflow:visible;"/>
	</clipPath>
	<g style="clip-path:url(#SVGID_26_);">
		<defs>
			<rect id="SVGID_95_" x="-255.3" y="-563.2" width="5068.8" height="2851.2"/>
		</defs>
		<clipPath id="SVGID_28_">
			<use xlink:href="#SVGID_95_"  style="overflow:visible;"/>
		</clipPath>
	</g>
</g>
<g>
	<defs>
		<path id="SVGID_97_" d="M739.9,40.1h-6.1c-1,0-1.9,0.8-1.9,1.9c0,1,0.8,1.9,1.9,1.9h6.1c1,0,1.9-0.8,1.9-1.9
			C741.8,40.9,741,40.1,739.9,40.1z"/>
	</defs>
	<clipPath id="SVGID_30_">
		<use xlink:href="#SVGID_97_"  style="overflow:visible;"/>
	</clipPath>
	<g style="clip-path:url(#SVGID_30_);">
		<defs>
			<rect id="SVGID_99_" x="-255.3" y="-563.2" width="5068.8" height="2851.2"/>
		</defs>
		<clipPath id="SVGID_32_">
			<use xlink:href="#SVGID_99_"  style="overflow:visible;"/>
		</clipPath>
	</g>
</g>
<g>
	<g>
		<defs>
			<path id="SVGID_101_" d="M821.7,40.4c1,0,1.9-0.8,1.9-1.9V18.4c0-4.2-3.4-7.6-7.6-7.6h-2.5V8.9c0-1-0.8-1.9-1.9-1.9
				c-1,0-1.9,0.8-1.9,1.9v1.9h-8.6V8.9c0-1-0.8-1.9-1.9-1.9c-1,0-1.9,0.8-1.9,1.9v1.9h-8.5V8.9c0-1-0.8-1.9-1.9-1.9
				c-1,0-1.9,0.8-1.9,1.9v1.9h-2.4c-4.2,0-7.6,3.4-7.6,7.6V48c0,4.2,3.4,7.6,7.6,7.6H816c4.2,0,7.6-3.4,7.6-7.6c0-1-0.8-1.9-1.9-1.9
				s-1.9,0.8-1.9,1.9c0,2.1-1.7,3.8-3.8,3.8h-33.4c-2.1,0-3.8-1.7-3.8-3.8V18.4c0-2.1,1.7-3.8,3.8-3.8h2.4v1.9c0,1,0.8,1.9,1.9,1.9
				c1,0,1.9-0.8,1.9-1.9v-1.9h8.5v1.9c0,1,0.8,1.9,1.9,1.9c1,0,1.9-0.8,1.9-1.9v-1.9h8.6v1.9c0,1,0.8,1.9,1.9,1.9
				c1,0,1.9-0.8,1.9-1.9v-1.9h2.5c2.1,0,3.8,1.7,3.8,3.8v20.1C819.8,39.6,820.7,40.4,821.7,40.4z"/>
		</defs>
		<clipPath id="SVGID_34_">
			<use xlink:href="#SVGID_101_"  style="overflow:visible;"/>
		</clipPath>
		<g style="clip-path:url(#SVGID_34_);">
			<defs>
				<rect id="SVGID_103_" x="-302.3" y="-563.2" width="5068.8" height="2851.2"/>
			</defs>
			<clipPath id="SVGID_36_">
				<use xlink:href="#SVGID_103_"  style="overflow:visible;"/>
			</clipPath>
		</g>
	</g>
	<g>
		<defs>
			<circle id="SVGID_105_" cx="786.9" cy="26.9" r="1.9"/>
		</defs>
		<clipPath id="SVGID_38_">
			<use xlink:href="#SVGID_105_"  style="overflow:visible;"/>
		</clipPath>
		<g style="clip-path:url(#SVGID_38_);">
			<defs>
				<rect id="SVGID_107_" x="-302.3" y="-563.2" width="5068.8" height="2851.2"/>
			</defs>
			<clipPath id="SVGID_40_">
				<use xlink:href="#SVGID_107_"  style="overflow:visible;"/>
			</clipPath>
		</g>
	</g>
	<g>
		<defs>
			<circle id="SVGID_109_" cx="803.4" cy="26.9" r="1.9"/>
		</defs>
		<clipPath id="SVGID_42_">
			<use xlink:href="#SVGID_109_"  style="overflow:visible;"/>
		</clipPath>
		<g style="clip-path:url(#SVGID_42_);">
			<defs>
				<rect id="SVGID_111_" x="-302.3" y="-563.2" width="5068.8" height="2851.2"/>
			</defs>
			<clipPath id="SVGID_44_">
				<use xlink:href="#SVGID_111_"  style="overflow:visible;"/>
			</clipPath>
		</g>
	</g>
	<g>
		<defs>
			<circle id="SVGID_113_" cx="811.7" cy="26.9" r="1.9"/>
		</defs>
		<clipPath id="SVGID_46_">
			<use xlink:href="#SVGID_113_"  style="overflow:visible;"/>
		</clipPath>
		<g style="clip-path:url(#SVGID_46_);">
			<defs>
				<rect id="SVGID_115_" x="-302.3" y="-563.2" width="5068.8" height="2851.2"/>
			</defs>
			<clipPath id="SVGID_48_">
				<use xlink:href="#SVGID_115_"  style="overflow:visible;"/>
			</clipPath>
		</g>
	</g>
	<g>
		<defs>
			<circle id="SVGID_117_" cx="786.9" cy="35.2" r="1.9"/>
		</defs>
		<clipPath id="SVGID_50_">
			<use xlink:href="#SVGID_117_"  style="overflow:visible;"/>
		</clipPath>
		<g style="clip-path:url(#SVGID_50_);">
			<defs>
				<rect id="SVGID_119_" x="-302.3" y="-563.2" width="5068.8" height="2851.2"/>
			</defs>
			<clipPath id="SVGID_52_">
				<use xlink:href="#SVGID_119_"  style="overflow:visible;"/>
			</clipPath>
		</g>
	</g>
	<g>
		<defs>
			<circle id="SVGID_121_" cx="786.9" cy="43.4" r="1.9"/>
		</defs>
		<clipPath id="SVGID_54_">
			<use xlink:href="#SVGID_121_"  style="overflow:visible;"/>
		</clipPath>
		<g style="clip-path:url(#SVGID_54_);">
			<defs>
				<rect id="SVGID_123_" x="-302.3" y="-563.2" width="5068.8" height="2851.2"/>
			</defs>
			<clipPath id="SVGID_56_">
				<use xlink:href="#SVGID_123_"  style="overflow:visible;"/>
			</clipPath>
		</g>
	</g>
	<g>
		<defs>
			<circle id="SVGID_125_" cx="795.2" cy="26.9" r="1.9"/>
		</defs>
		<clipPath id="SVGID_58_">
			<use xlink:href="#SVGID_125_"  style="overflow:visible;"/>
		</clipPath>
		<g style="clip-path:url(#SVGID_58_);">
			<defs>
				<rect id="SVGID_127_" x="-302.3" y="-563.2" width="5068.8" height="2851.2"/>
			</defs>
			<clipPath id="SVGID_60_">
				<use xlink:href="#SVGID_127_"  style="overflow:visible;"/>
			</clipPath>
		</g>
	</g>
	<g>
		<defs>
			<circle id="SVGID_129_" cx="795.2" cy="35.2" r="1.9"/>
		</defs>
		<clipPath id="SVGID_62_">
			<use xlink:href="#SVGID_129_"  style="overflow:visible;"/>
		</clipPath>
		<g style="clip-path:url(#SVGID_62_);">
			<defs>
				<rect id="SVGID_131_" x="-302.3" y="-563.2" width="5068.8" height="2851.2"/>
			</defs>
			<clipPath id="SVGID_64_">
				<use xlink:href="#SVGID_131_"  style="overflow:visible;"/>
			</clipPath>
		</g>
	</g>
	<g>
		<defs>
			<circle id="SVGID_133_" cx="795.2" cy="43.4" r="1.9"/>
		</defs>
		<clipPath id="SVGID_66_">
			<use xlink:href="#SVGID_133_"  style="overflow:visible;"/>
		</clipPath>
		<g style="clip-path:url(#SVGID_66_);">
			<defs>
				<rect id="SVGID_135_" x="-302.3" y="-563.2" width="5068.8" height="2851.2"/>
			</defs>
			<clipPath id="SVGID_68_">
				<use xlink:href="#SVGID_135_"  style="overflow:visible;"/>
			</clipPath>
		</g>
	</g>
	<g>
		<defs>
			<circle id="SVGID_137_" cx="803.4" cy="35.2" r="1.9"/>
		</defs>
		<clipPath id="SVGID_70_">
			<use xlink:href="#SVGID_137_"  style="overflow:visible;"/>
		</clipPath>
		<g style="clip-path:url(#SVGID_70_);">
			<defs>
				<rect id="SVGID_139_" x="-302.3" y="-563.2" width="5068.8" height="2851.2"/>
			</defs>
			<clipPath id="SVGID_72_">
				<use xlink:href="#SVGID_139_"  style="overflow:visible;"/>
			</clipPath>
		</g>
	</g>
	<g>
		<defs>
			<circle id="SVGID_141_" cx="811.7" cy="35.2" r="1.9"/>
		</defs>
		<clipPath id="SVGID_74_">
			<use xlink:href="#SVGID_141_"  style="overflow:visible;"/>
		</clipPath>
		<g class="st40">
			<defs>
				<rect id="SVGID_143_" x="-302.3" y="-563.2" width="5068.8" height="2851.2"/>
			</defs>
			<clipPath id="SVGID_76_">
				<use xlink:href="#SVGID_143_"  style="overflow:visible;"/>
			</clipPath>
		</g>
	</g>
	<g>
		<defs>
			<circle id="SVGID_145_" cx="803.4" cy="43.4" r="1.9"/>
		</defs>
		<clipPath id="SVGID_78_">
			<use xlink:href="#SVGID_145_"  style="overflow:visible;"/>
		</clipPath>
		<g class="st42">
			<defs>
				<rect id="SVGID_147_" x="-302.3" y="-563.2" width="5068.8" height="2851.2"/>
			</defs>
			<clipPath id="SVGID_80_">
				<use xlink:href="#SVGID_147_"  style="overflow:visible;"/>
			</clipPath>
		</g>
	</g>
</g>
<g>
	<g>
		<defs>
			<path id="SVGID_149_" d="M961.7,20.2l-0.5,0.5l-8-8l0.5-0.5c1.1-1.1,2.5-1.6,4-1.6c1.5,0,2.9,0.6,4,1.6c1.1,1.1,1.6,2.5,1.6,4
				C963.4,17.7,962.8,19.2,961.7,20.2z M933.8,46.3l-8.5,2.4l2.4-8.6L933.8,46.3z M964.3,9.7C962.6,8,960.2,7,957.8,7
				c-2.5,0-4.8,1-6.5,2.7l-25.8,25.8c-0.2,0.2-0.4,0.5-0.5,0.8l-4.1,14.6c-0.2,0.6,0,1.3,0.5,1.8c0.3,0.3,0.8,0.5,1.3,0.5
				c0.2,0,0.3,0,0.5-0.1l14.6-4.1c0.6-0.2,1.1-0.7,1.3-1.3c0.2-0.6,0-1.3-0.5-1.7l-9.2-9.2l21.4-21.4l8,8l-16.4,16.3
				c-0.7,0.7-0.7,1.8,0,2.5c0.7,0.7,1.8,0.7,2.5,0l19.5-19.4c1.7-1.7,2.7-4.1,2.7-6.5S966,11.4,964.3,9.7z"/>
		</defs>
		<clipPath id="SVGID_82_">
			<use xlink:href="#SVGID_149_"  style="overflow:visible;"/>
		</clipPath>
		<g class="st44">
			<defs>
				<rect id="SVGID_151_" x="-387.3" y="-563.2" width="5068.8" height="2851.2"/>
			</defs>
			<clipPath id="SVGID_84_">
				<use xlink:href="#SVGID_151_"  style="overflow:visible;"/>
			</clipPath>
		</g>
	</g>
</g>
</svg>
